<mxfile host="app.diagrams.net" modified="2023-08-23T06:54:42.031Z" agent="Mozilla/5.0 (X11; Linux x86_64; rv:102.0) Gecko/20100101 Firefox/102.0" version="21.6.8" etag="1q12spScO1U2mvfxbwZ6" type="github">
  <diagram name="第 1 页" id="Q7naMrC6Kvpnw0ZEDGrH">
    <mxGraphModel>
      <root>
        <mxCell id="0" />
        <mxCell id="1" parent="0" />
      </root>
    </mxGraphModel>
  </diagram>
</mxfile>
